<?xml version="1.0" encoding="iso-8859-1"?>
<!-- Uploaded to: SVG Repo, www.svgrepo.com, Generator: SVG Repo Mixer Tools -->
<svg height="16px" width="16px" version="1.1" id="Layer_1" xmlns="http://www.w3.org/2000/svg" xmlns:xlink="http://www.w3.org/1999/xlink" 
	 viewBox="0 0 512 512" xml:space="preserve">
<circle style="fill:#FF9233;" cx="256" cy="256" r="256"/>
<circle style="fill:#FFC066;" cx="256" cy="256" r="201.424"/>
<g>
	<path style="fill:#FF7700;" d="M256,82.708c-59.243,0-111.631,29.89-142.895,75.373v27.091H97.854
		c-9.727,21.635-15.146,45.61-15.146,70.828c0,95.554,77.738,173.292,173.292,173.292c25.219,0,49.194-5.419,70.828-15.146v-15.25
		h27.091c45.484-31.266,75.373-83.653,75.373-142.896C429.292,160.446,351.554,82.708,256,82.708z"/>
	<path style="fill:#FF7700;" d="M32.07,264.44h-9.565c-4.662,0-8.44-3.779-8.44-8.44c0-4.661,3.778-8.44,8.44-8.44h9.565
		c4.662,0,8.44,3.779,8.44,8.44C40.51,260.661,36.732,264.44,32.07,264.44z"/>
	<path style="fill:#FF7700;" d="M489.495,264.44h-9.565c-4.662,0-8.44-3.779-8.44-8.44c0-4.661,3.778-8.44,8.44-8.44h9.565
		c4.662,0,8.44,3.779,8.44,8.44C497.934,260.661,494.157,264.44,489.495,264.44z"/>
</g>
<g>
	<polygon style="fill:#FF9233;" points="133.464,133.464 378.536,378.536 378.536,133.464 	"/>
	<circle style="fill:#FF9233;" cx="111.188" cy="174.834" r="16.879"/>
	<circle style="fill:#FF9233;" cx="156.379" cy="220.036" r="16.879"/>
	<circle style="fill:#FF9233;" cx="201.57" cy="265.227" r="16.879"/>
	<circle style="fill:#FF9233;" cx="246.773" cy="310.43" r="16.879"/>
	<circle style="fill:#FF9233;" cx="291.964" cy="355.621" r="16.879"/>
	<circle style="fill:#FF9233;" cx="337.155" cy="400.812" r="16.879"/>
</g>
</svg>